<?xml version="1.0" encoding="UTF-8" standalone="no"?>
<svg width="128px" height="128px" viewBox="0 0 128 128" version="1.1" xmlns="http://www.w3.org/2000/svg" xmlns:xlink="http://www.w3.org/1999/xlink">
    <!-- Generator: Sketch 41.2 (35397) - http://www.bohemiancoding.com/sketch -->
    <title>2U</title>
    <desc>Created with Sketch.</desc>
    <defs></defs>
    <g id="hi-fi" stroke="none" stroke-width="1" fill="none" fill-rule="evenodd">
        <g id="home" transform="translate(-734.000000, -1849.000000)">
            <g id="business" transform="translate(0.000000, 1683.000000)">
                <g id="Group-4" transform="translate(351.000000, 148.000000)">
                    <g id="A-Copy-2" transform="translate(306.000000, 0.000000)">
                        <g id="2U" transform="translate(28.000000, 18.000000)">
                            <g id="Group-3" transform="translate(49.000000, 0.000000)">
                                <g id="2U">
                                    <rect id="Rectangle-6" fill="#D8D8D8" opacity="0" x="0" y="0" width="128" height="128"></rect>
                                    <g id="Group" transform="translate(14.000000, 14.000000)" fill="#699AD4">
                                        <path d="M37.9612594,11.4289739 C37.9612594,17.7163809 43.0582098,22.8133313 49.3456168,22.8133313 C55.6330238,22.8133313 60.7299742,17.7163809 60.7299742,11.4289739 C60.7299742,5.14156694 55.6330238,0.0446165179 49.3456168,0.0446165179 C43.0582098,0.0446165179 37.9612594,5.14156694 37.9612594,11.4289739 L37.9612594,11.4289739 Z" id="Shape"></path>
                                        <path d="M0.00477480159,73.8842144 C0.00477474098,77.9514536 2.17462099,81.7097376 5.69695345,83.7433572 C9.21928591,85.7769768 13.5589785,85.7769768 17.0813109,83.7433572 C20.6036434,81.7097376 22.7734896,77.9514536 22.7734896,73.8842144 C22.7734897,69.8169752 20.6036434,66.0586911 17.081311,64.0250715 C13.5589785,61.9914518 9.2192859,61.9914518 5.69695343,64.0250715 C2.17462096,66.0586911 0.00477471588,69.8169752 0.00477480159,73.8842144 L0.00477480159,73.8842144 Z" id="Shape"></path>
                                        <path d="M81.9670922,21.2110899 C78.4476567,17.6916545 74.4592897,14.8117167 70.1434798,12.6278321 C69.9917989,15.2886421 69.3385121,17.8171559 68.276846,20.1204465 C79.8371652,26.637927 87.7275672,38.9271735 88.009046,53.0512789 C90.637981,53.0529776 93.1541045,53.5451909 95.4719837,54.4393885 C95.4745816,54.2371473 95.4793779,54.035206 95.4793779,53.8324653 C95.4792782,41.509745 90.6805476,29.9245453 81.9670922,21.2110899 Z M70.9715294,85.8792921 C64.7945814,90.0610072 57.3503291,92.5056869 49.3457168,92.5056869 C41.5421466,92.5056869 34.2725569,90.1802136 28.1891356,86.1890487 C26.6671312,88.2615207 24.7724195,90.0440205 22.6032234,91.434928 C30.3596307,96.9760753 39.6224546,99.9660267 49.3457168,99.9660267 C59.2075701,99.9660267 68.5952959,96.8897432 76.4184507,91.1959158 C74.294619,89.771035 72.4462709,87.9662527 70.9715294,85.8792921 Z M28.5477539,12.6278322 C24.231944,14.8117168 20.2436769,17.6916546 16.7242415,21.21109 C8.01078601,29.9245453 3.21205546,41.509745 3.21205546,53.8324653 C3.21205546,54.1286326 3.21735129,54.4240006 3.22284702,54.7192687 C5.5268372,53.7338428 8.04306071,53.1528991 10.6821876,53.0643686 C10.9590701,38.9348675 18.8506711,26.6399254 30.4144876,20.1204465 C29.3527216,17.817056 28.6995347,15.2886421 28.5477539,12.6278322 Z" id="Shape"></path>
                                        <path d="M76.6111993,73.8842144 C76.6111993,80.1716214 81.7081497,85.2685718 87.9955567,85.2685718 C94.2829637,85.2685718 99.3799141,80.1716214 99.3799141,73.8842144 C99.3799141,67.5968074 94.2829637,62.499857 87.9955567,62.499857 C81.7081497,62.499857 76.6111993,67.5968074 76.6111993,73.8842144 Z" id="Shape"></path>
                                    </g>
                                </g>
                            </g>
                        </g>
                    </g>
                </g>
            </g>
        </g>
    </g>
</svg>