<?xml version="1.0" encoding="UTF-8" standalone="no"?>
<svg width="128px" height="128px" viewBox="0 0 128 128" version="1.1" xmlns="http://www.w3.org/2000/svg" xmlns:xlink="http://www.w3.org/1999/xlink">
    <!-- Generator: Sketch 41.2 (35397) - http://www.bohemiancoding.com/sketch -->
    <title>b&amp;r</title>
    <desc>Created with Sketch.</desc>
    <defs></defs>
    <g id="hi-fi" stroke="none" stroke-width="1" fill="none" fill-rule="evenodd">
        <g id="home" transform="translate(-428.000000, -1849.000000)">
            <g id="business" transform="translate(0.000000, 1683.000000)">
                <g id="Group-4" transform="translate(351.000000, 148.000000)">
                    <g id="A">
                        <g id="Group-20">
                            <g id="b&amp;r">
                                <g id="Group-2">
                                    <rect id="Rectangle-6" fill="#F2F2F2" opacity="0" x="0" y="0" width="281" height="327"></rect>
                                    <g id="b&amp;r" transform="translate(77.000000, 18.000000)">
                                        <rect id="Rectangle-6" fill="#D8D8D8" opacity="0" x="0" y="0" width="128" height="128"></rect>
                                        <g id="Group" transform="translate(4.000000, 17.000000)" fill="#699AD4">
                                            <path d="M81.6772452,59.7855601 C79.981759,59.7855601 79.376268,60.5121771 79.376268,60.5121771 L56.2457888,71.532419 L33.1151705,60.269925 C32.3885535,59.9066861 31.6619365,59.7855601 30.8141933,59.664434 C27.9077253,59.3011951 26.5756173,61.3599201 26.5756173,63.4186452 C26.5756173,64.7507532 27.4233603,65.8407483 28.5132162,66.4462393 L53.9446724,79.0408414 L53.9446724,79.0408414 C54.6712894,79.4040803 55.3979064,79.7674584 56.2456495,79.7674584 C57.0933925,79.7674584 57.8200095,79.5252063 58.5466267,79.0408414 L58.5466267,79.0408414 L83.9780829,66.8094782 C85.0679388,66.0828612 85.9156818,64.8718793 85.9156818,63.5397713 C85.9159604,61.4809069 83.9782222,59.7855601 81.6772452,59.7855601 Z" id="Shape"></path>
                                            <path d="M97.7839454,22.8492184 C95.1197295,9.77025143 83.8570962,0.0819780952 70.7781291,0.0819780952 C60.121126,0.0819780952 50.4328528,6.62153116 45.9521638,16.4307913 C43.6511867,15.4619222 41.2292229,15.0986833 38.6859937,15.0986833 C28.1501166,15.0986833 19.5518385,23.3335833 18.4618434,33.9907256 C8.16807918,34.9595947 0.0543051701,44.0422377 0.0543051701,54.9414929 C0.0543051701,65.9618741 8.28920517,75.0445173 18.7040955,75.8922603 L18.7040955,71.1693193 C10.9535604,70.3215763 4.77724626,63.4187842 4.77724626,54.9416321 C4.77724626,45.8589891 11.8011644,38.4716929 20.6416946,38.4716929 L20.6416946,38.4716929 L22.9426717,38.4716929 L22.9426717,35.928603 C23.0637977,26.967086 29.9665898,19.7009158 38.5648679,19.7009158 C41.1079578,19.7009158 43.6511869,20.3064068 45.9521641,21.6385147 L48.3742672,22.9706227 L49.3431363,20.4275328 C52.6128433,11.1026377 61.2111214,4.8053366 70.7782686,4.8053366 C82.0407627,4.8053366 91.8501619,13.6458668 93.4243829,25.3927259 L93.666635,27.2091988 L95.6042339,27.3303248 C106.624615,28.0569418 115.34388,37.7450758 115.34388,49.370948 C115.34388,61.4811852 105.897859,71.4115713 94.2721259,71.4115713 L93.0611439,71.4115713 L93.0611439,76.0135254 L94.2721259,76.0135254 C108.441088,76.0135254 119.945834,64.0244143 119.945834,49.370948 C119.945695,35.9283246 110.257421,24.6658306 97.7839454,22.8492184 Z" id="Shape"></path>
                                            <path d="M81.6772452,73.1067792 C79.981759,73.1067792 79.376268,73.8333962 79.376268,73.8333962 L56.2457888,84.8537774 L33.1151705,73.5912833 C32.3885535,73.2280444 31.6619365,73.1069184 30.8141933,72.9857922 C27.9077253,72.6225533 26.5756173,74.6812784 26.5756173,76.7400034 C26.5756173,78.0721114 27.4233603,79.1621065 28.5132162,79.7675976 L53.9446724,92.3621996 L53.9446724,92.3621996 C54.6712894,92.7254385 55.3979064,93.0888166 56.2456495,93.0888166 C57.0933925,93.0888166 57.8200095,92.8465645 58.5466267,92.3621996 L58.5466267,92.3621996 L83.9780829,80.1308365 C85.0679388,79.4042195 85.9156818,78.1932376 85.9156818,76.8611295 C85.9159604,74.8022653 83.9782222,73.1067792 81.6772452,73.1067792 Z" id="Shape"></path>
                                            <path d="M83.9782222,46.7064539 L83.9782222,46.7064539 L58.546766,34.1118518 L58.546766,34.1118518 C57.820149,33.7486129 57.093532,33.5063608 56.2457888,33.5063608 C55.3980459,33.5063608 54.5503027,33.7486129 53.9448117,34.2329778 L53.9448117,34.2329778 L28.5133555,46.5854671 L28.5133555,46.5854671 C27.4234996,47.1909581 26.5757566,48.2809532 26.5757566,49.6130612 C26.5757566,50.9451693 27.4234996,52.0351644 28.5133555,52.6406554 L28.5133555,52.6406554 L53.9448117,65.1142706 L53.9448117,65.1142706 C54.6714287,65.4775095 55.3980457,65.8408876 56.2457888,65.8408876 C57.0935318,65.8408876 57.8201488,65.5986355 58.546766,65.1142706 L58.546766,65.1142706 L83.9782222,52.6406554 L83.9782222,52.6406554 C85.0680781,51.9140384 85.9158211,50.9451693 85.9158211,49.6130612 C85.9159604,48.5229268 85.0682174,47.4330709 83.9782222,46.7064539 Z" id="Shape"></path>
                                        </g>
                                    </g>
                                </g>
                            </g>
                        </g>
                    </g>
                </g>
            </g>
        </g>
    </g>
</svg>