<?xml version="1.0" encoding="UTF-8" standalone="no"?>
<svg width="56px" height="56px" viewBox="0 0 56 56" version="1.1" xmlns="http://www.w3.org/2000/svg" xmlns:xlink="http://www.w3.org/1999/xlink">
    <!-- Generator: Sketch 41.2 (35397) - http://www.bohemiancoding.com/sketch -->
    <title>email</title>
    <desc>Created with Sketch.</desc>
    <defs></defs>
    <g id="hi-fi" stroke="none" stroke-width="1" fill="none" fill-rule="evenodd">
        <g id="Join-us" transform="translate(-1220.000000, -2313.000000)">
            <g id="demo" transform="translate(397.000000, 2183.000000)">
                <g id="contact-us" transform="translate(215.000000, 129.000000)">
                    <g id="Group-4" transform="translate(472.000000, 1.000000)">
                        <g id="Group-2" transform="translate(136.000000, 0.000000)">
                            <g id="email">
                                <rect id="Rectangle-4" fill-opacity="0" fill="#D8D8D8" x="0" y="0" width="56" height="56"></rect>
                                <path d="M28,30.8134766 L54.0808105,9.08374023 C53.9389648,9.05810547 53.8125,9 53.6655273,9 L2.33447266,9 C2.19091797,9 2.06376953,9.05810547 1.92192383,9.08374023 L28,30.8134766 Z M55.9996582,11.3327637 C55.9996582,11.0883789 55.9312988,10.861084 55.8578125,10.638916 L37.3700195,26.0488281 L55.8868652,44.5680664 C55.9330078,44.3800781 55.9996582,44.2023437 55.9996582,44.0006836 L55.9996582,11.3327637 Z M0.143554688,10.637207 C0.07109375,10.861084 0,11.0849609 0,11.3327637 L0,43.9972656 C0,44.2023438 0.0700683594,44.3800781 0.116210938,44.5680664 L18.6371582,26.0471191 L0.143554688,10.637207 Z M35.5673828,27.5476074 L28.7461426,33.2306641 C28.5318359,33.4118164 28.2669434,33.5006836 28.0003418,33.5006836 C27.7364746,33.5006836 27.4705566,33.4118164 27.254541,33.2306641 L20.4384277,27.5510254 L1.77119141,46.2155273 C1.95507812,46.2667969 2.13691406,46.3317383 2.33515625,46.3317383 L53.6679199,46.3317383 C53.8695801,46.3317383 54.0524414,46.2667969 54.2404297,46.2155273 L35.5673828,27.5476074 Z" id="Shape" fill="#699AD4"></path>
                            </g>
                        </g>
                    </g>
                </g>
            </g>
        </g>
    </g>
</svg>