<?xml version="1.0" encoding="UTF-8" standalone="no"?>
<svg width="450px" height="413px" viewBox="0 0 450 413" version="1.1" xmlns="http://www.w3.org/2000/svg" xmlns:xlink="http://www.w3.org/1999/xlink">
    <!-- Generator: Sketch 41.2 (35397) - http://www.bohemiancoding.com/sketch -->
    <title>icons</title>
    <desc>Created with Sketch.</desc>
    <defs>
        <rect id="path-1" x="8.84650808" y="52.7777778" width="52.2449346" height="15.2982456" rx="1"></rect>
        <mask id="mask-2" maskContentUnits="userSpaceOnUse" maskUnits="objectBoundingBox" x="0" y="0" width="52.2449346" height="15.2982456" fill="white">
            <use xlink:href="#path-1"></use>
        </mask>
    </defs>
    <g id="Symbols" stroke="none" stroke-width="1" fill="none" fill-rule="evenodd">
        <g id="icons">
            <g>
                <path d="M71.8788445,155.260679 C38.0662744,151.839754 12.0074812,140.024835 15.9461359,118.460802 C20.2101446,95.1154637 52.836083,83.655612 87.3608212,102.498748 C101.123493,110.010229 111.043301,123.06098 114.246381,136.770151 C120.424892,163.214161 114.329911,183.696253 114.329911,183.696253 C114.329911,183.696253 105.691415,158.681605 71.8788445,155.260679 Z" id="Oval-92-Copy-3" fill="#FFFFFF" transform="translate(66.282976, 138.378003) rotate(-386.000000) translate(-66.282976, -138.378003) "></path>
                <text id="LXC" font-family="Roboto-Medium, Roboto" font-size="24" font-weight="400" line-spacing="32" fill="#699AD4">
                    <tspan x="37" y="139">LXC</tspan>
                </text>
                <text id="ARM" transform="translate(87.038502, 61.241675) rotate(-330.000000) translate(-87.038502, -61.241675) " font-family="PingFangSC-Semibold, PingFang SC" font-size="26" font-weight="500" fill="#FFFFFF">
                    <tspan x="57.0385023" y="70.7416752">ARM</tspan>
                </text>
                <path d="M400.107462,225.715986 C373.306931,223.004491 358.278758,210.256099 361.400616,193.164007 C364.780356,174.660017 393.027224,159.188715 420.392234,174.124169 C431.300808,180.077921 439.163451,190.422212 441.702277,201.288381 C446.59949,222.248441 439.3816,244.870955 439.3816,244.870955 C439.3816,244.870955 426.907994,228.427481 400.107462,225.715986 Z" id="Oval-92-Copy-3" fill="#FFFFFF" transform="translate(402.199829, 206.500000) scale(-1, 1) rotate(-76.000000) translate(-402.199829, -206.500000) "></path>
                <g id="Group" transform="translate(92.238254, 0.000000)">
                    <path d="M135.159209,198.432728 C135.159209,198.432728 152.738116,143.626177 178.128505,113.387466 C203.518894,83.1487555 169.734531,76.1342104 160.22231,61.6029511 C150.710088,47.0716918 150.450753,35.7840531 153.158278,18.61353 C163.742093,25.2442054 159.369278,29.6448933 191.554578,34.02263 C223.739877,38.4003667 217.651209,74.7208635 217.651209,74.7208635 C217.651209,74.7208635 230.125396,53.5053787 254.592614,64.9154193 C279.059832,76.3254599 277.901796,108.644978 302.657714,106.564168 C298.418643,108.644978 250.436729,127.739491 225.886324,110.752567 C214.496882,102.871981 204.258976,121.199836 200.880862,138.462933 C196.977313,158.411144 217.651212,176.252549 217.651212,176.252549 L135.159209,198.432728 Z" id="Path-2" fill="#5289A4" transform="translate(218.908462, 108.523129) rotate(-345.000000) translate(-218.908462, -108.523129) "></path>
                    <text id="rkt" transform="translate(317.006140, 201.887016) rotate(-313.000000) translate(-317.006140, -201.887016) " font-family="Roboto-Regular, Roboto" font-size="36" font-weight="normal" line-spacing="32" fill="#699AD4">
                        <tspan x="292.749872" y="223.887016">rkt</tspan>
                    </text>
                    <g id="computer" transform="translate(0.000000, 174.000000)">
                        <path d="M0,20.0039466 C0,8.95607197 8.95331561,0 20.0092613,0 L237.377614,0 C248.428424,0 257.386876,8.96136356 257.386876,20.0039466 L257.386876,160.083811 C257.386876,171.131686 248.43356,180.087758 237.377614,180.087758 L20.0092613,180.087758 C8.95845144,180.087758 0,171.126394 0,160.083811 L0,20.0039466 Z" id="Rectangle-308-Copy-3" fill="#F0EFEF"></path>
                        <rect id="Rectangle-308-Copy-3" fill="#A2DCEB" x="14.7533203" y="12.8802525" width="226.819472" height="153.937386" rx="18"></rect>
                        <path d="M202.147283,204.417808 C202.185305,204.247129 202.204494,204.075596 202.204494,203.903272 C202.204494,196.799006 169.590524,191.03986 129.359152,191.03986 C89.1277807,191.03986 56.5138101,196.799006 56.5138101,203.903272 C56.5138101,204.075596 56.5329994,204.247129 56.5710213,204.417808 L202.147283,204.417808 Z" id="Combined-Shape-Copy-5" fill="#EFEFEF"></path>
                        <path d="M15.0146174,38.3124143 C15.0146174,38.3124143 53.3512023,20.616416 79.2135255,23.8716879 C105.075849,27.1269598 149.268756,47.3533727 168.527059,47.353373 C187.785361,47.3533734 235.228174,39.8868049 241.282488,34.8938334 C241.282488,52.9277823 241.282482,150.948228 241.282482,150.948228 C241.282482,159.781098 234.121254,166.920337 225.281614,166.894148 L32.0214825,166.32157 C22.6288502,166.293743 15.0146174,158.661825 15.0146174,149.279247 L15.0146174,38.3124143 Z" id="Path-9" fill="#242E51" opacity="0.773029384"></path>
                        <path d="M14.8948395,46.1452702 C14.8948395,46.1452702 17.7461665,47.6453879 18.4228734,47.8177839 C24.7428139,49.427834 56.7319766,56.3465061 85.408585,56.3465061 C117.155738,56.3465061 141.333928,32.0829309 174.107388,32.0829309 C206.880848,32.0829309 235.02443,51.1997534 241.079915,46.1452707 C241.079915,64.4013902 241.079909,150.937789 241.079909,150.937789 C241.079909,159.776424 233.921302,166.941554 225.084896,166.941554 L31.8954815,166.94155 C22.5062862,166.94155 14.8948395,159.339441 14.8948395,149.938472 L14.8948395,46.1452702 Z" id="Path-9" fill="#0FA7DA"></path>
                    </g>
                    <path d="M97.6517076,165.487806 C97.6517076,165.487806 92.1219874,158.198189 80.2409444,156.996146 C68.3599015,155.794103 61.6977065,150.142566 63.0816688,142.565408 C64.579954,134.362335 77.1021776,127.503695 89.2334618,134.124786 C94.069382,136.764166 97.5549991,141.349932 98.6804955,146.167054 C100.851497,155.458936 97.6517076,165.487806 97.6517076,165.487806" id="Oval-92-Copy-3" fill="#FFFFFF" transform="translate(81.168519, 148.477436) rotate(-10.000000) translate(-81.168519, -148.477436) "></path>
                    <path d="M135.234332,121.38963 C135.234332,121.38963 121.264121,102.973239 91.2480144,99.9364141 C61.2319078,96.8995892 44.4006281,82.6216228 47.897052,63.4787919 C51.6822994,42.7546599 83.3182762,25.4270844 113.966589,42.15452 C126.183993,48.8226141 134.990009,60.4080312 137.833447,72.5779418 C143.318237,96.0528274 135.234332,121.38963 135.234332,121.38963" id="Oval-92-Copy-3" fill="#FFFFFF" transform="translate(93.591427, 78.414860) rotate(20.000000) translate(-93.591427, -78.414860) "></path>
                    <text id="Docker" transform="translate(106.782512, 85.393538) rotate(48.000000) translate(-106.782512, -85.393538) " font-family="Roboto-Regular, Roboto" font-size="24" font-weight="normal" line-spacing="32" fill="#699AD4">
                        <tspan x="57.2843023" y="94.3935383">Docker</tspan>
                    </text>
                    <rect id="Rectangle-Copy" fill="#FFFFFF" x="263.231522" y="350.267216" width="12.0596799" height="12.2694618" rx="1"></rect>
                    <g id="Group-10" transform="translate(259.000000, 317.000000)">
                        <rect id="Rectangle-21" fill="#A2DBEA" x="0.58592226" y="0.121017307" width="71.8902761" height="77.4056389" rx="4"></rect>
                        <rect id="Rectangle" fill="#FFFFFF" x="8.23152245" y="10.3198477" width="57.9332811" height="14.9817366" rx="1"></rect>
                        <rect id="Rectangle-Copy-2" fill="#FFFFFF" x="23.5227228" y="33.2672161" width="12.0596799" height="12.2694618" rx="1"></rect>
                        <rect id="Rectangle-Copy-3" fill="#FFFFFF" x="38.8139232" y="33.2672161" width="12.0596799" height="12.2694618" rx="1"></rect>
                        <rect id="Rectangle-Copy-7" fill="#FFFFFF" x="54.1051236" y="33.2672161" width="12.0596799" height="31.6325058" rx="1"></rect>
                        <rect id="Rectangle-Copy-4" fill="#FFFFFF" x="38.8139232" y="52.3900232" width="12.0596799" height="12.2694618" rx="1"></rect>
                        <rect id="Rectangle-Copy-5" fill="#FFFFFF" x="23.5227228" y="52.3900232" width="12.0596799" height="12.2694618" rx="1"></rect>
                    </g>
                    <rect id="Rectangle-Copy-6" fill="#FFFFFF" x="263.231522" y="369.390023" width="12.0596799" height="12.2694618" rx="1"></rect>
                    <text id="DORRY" font-family="Roboto-Medium, Roboto" font-size="36" font-weight="400" fill="#FFFFFF">
                        <tspan x="70.3847656" y="283">DORRY</tspan>
                    </text>
                    <g id="Group-11" transform="translate(214.000000, 336.000000)">
                        <path d="M53.2897457,0.520902374 L6.65547531,0.520902374 C3.34278692,0.520902374 0.658764049,3.20708871 0.658764049,6.52066747 L0.658764049,70.9821204 C0.658764049,74.3054316 3.34358313,76.9818855 6.65547531,76.9818855 L62.0688515,76.9818855 C65.3815399,76.9818855 68.0655628,74.2956992 68.0655628,70.9821204 L68.0655628,16.3426185 C64.1776362,12.5218687 57.6575025,5.37289277 53.2897457,0.520902374 Z" id="Combined-Shape" fill="#FFFFFF"></path>
                        <polygon id="Path-152" fill="#000000" opacity="0.0864622201" points="54.2720658 15.3712931 68.1924672 27.9797742 68.1924669 16.4448927 60.9686118 12.783989"></polygon>
                        <path d="M52.980179,0.520902374 C53.8114762,1.44280014 65.3370971,13.9975224 67.7983794,16.4942085 L58.9859465,16.4942082 C55.6690527,16.4942081 52.980179,13.800433 52.980179,10.4861377 L52.980179,0.520902374 Z" id="Rectangle-253" fill="#FFFFFF"></path>
                        <rect id="Rectangle-2" fill="#0FA7DA" x="9.06596512" y="14.5321637" width="42.050801" height="2.5497076" rx="1.2748538"></rect>
                        <rect id="Rectangle-2-Copy" fill="#0FA7DA" transform="translate(35.188432, 26.005848) scale(1, -1) translate(-35.188432, -26.005848) " x="9.06596512" y="24.7309942" width="52.2449346" height="2.5497076" rx="1.2748538"></rect>
                        <rect id="Rectangle-2-Copy" fill="#0FA7DA" transform="translate(35.188432, 34.929825) scale(1, -1) translate(-35.188432, -34.929825) " x="9.06596512" y="33.6549708" width="52.2449346" height="2.5497076" rx="1.2748538"></rect>
                        <rect id="Rectangle-2-Copy-2" fill="#0FA7DA" transform="translate(35.188432, 43.853801) scale(1, -1) translate(-35.188432, -43.853801) " x="9.06596512" y="42.5789474" width="52.2449346" height="2.5497076" rx="1.2748538"></rect>
                        <use id="Rectangle-3" stroke="#0FA7DA" mask="url(#mask-2)" stroke-width="4" xlink:href="#path-1"></use>
                    </g>
                </g>
            </g>
        </g>
    </g>
</svg>