<?xml version="1.0" encoding="UTF-8" standalone="no"?>
<svg width="56px" height="56px" viewBox="0 0 56 56" version="1.1" xmlns="http://www.w3.org/2000/svg" xmlns:xlink="http://www.w3.org/1999/xlink">
    <!-- Generator: Sketch 41.2 (35397) - http://www.bohemiancoding.com/sketch -->
    <title>location</title>
    <desc>Created with Sketch.</desc>
    <defs></defs>
    <g id="hi-fi" stroke="none" stroke-width="1" fill="none" fill-rule="evenodd">
        <g id="Join-us" transform="translate(-748.000000, -2312.000000)">
            <g id="demo" transform="translate(397.000000, 2183.000000)">
                <g id="contact-us" transform="translate(215.000000, 129.000000)">
                    <g id="location">
                        <g id="Group-10" transform="translate(136.000000, 0.000000)">
                            <g id="location" transform="translate(0.000000, 1.000000)">
                                <rect id="Rectangle-9" fill-opacity="0" fill="#D8D8D8" x="0" y="0" width="56" height="56"></rect>
                                <path d="M26.7579254,49.1272865 L27.4306018,49.8200074 L28.1034703,49.1272865 C28.1455446,49.0852122 32.2945056,44.8052254 36.3860866,39.5517021 C41.9708249,32.3838944 44.8035073,26.8754278 44.8035073,23.1804466 C44.8035073,18.8558879 42.9840021,14.7958785 39.6822266,11.7490463 C36.4061312,8.72334738 32.053523,7.05715411 27.4306018,7.05715411 C22.8065919,7.05715411 18.4552645,8.72334744 15.179105,11.7489823 C11.8760487,14.7958785 10.0577603,18.8558879 10.0577603,23.1803826 C10.0577603,26.8753638 12.8904427,32.3838304 18.4750529,39.5516381 C22.566762,44.8052254 26.715723,49.0852122 26.7579254,49.1272865 Z M27.4306018,17.3138042 C30.7383971,17.3138042 33.4306396,20.0446629 33.4306396,23.4004241 C33.4306396,26.7584267 30.738397,29.4892214 27.4306018,29.4892214 C24.1229986,29.4892214 21.430692,26.7583627 21.430692,23.4004241 C21.430692,20.0446629 24.1229986,17.3138042 27.4306018,17.3138042 Z M37.6592023,45.2754712 L36.1556707,46.7778501 C37.1408624,47.4120385 37.7234345,48.1210896 37.7234345,48.8044607 C37.7234345,50.7397502 33.2561946,52.9018054 27.2761373,52.9018054 C21.2960159,52.9018054 16.828776,50.7396862 16.828776,48.8044607 C16.828776,48.0579462 17.5062554,47.2809486 18.6669168,46.6023165 L17.3049776,44.9971533 C15.7125584,46.0313996 14.7776381,47.3419147 14.7776381,48.8020912 C14.7776381,52.3239083 20.1493153,54.9799682 27.2761373,54.9799682 C34.4028953,54.9799682 39.7734197,52.3262778 39.7734197,48.8020912 C39.7711782,47.4728766 39.001225,46.2629684 37.6592023,45.2754712 Z" id="Shape" fill="#699AD4"></path>
                            </g>
                        </g>
                    </g>
                </g>
            </g>
        </g>
    </g>
</svg>