<?xml version="1.0" encoding="UTF-8" standalone="no"?>
<svg width="56px" height="34px" viewBox="0 0 56 34" version="1.1" xmlns="http://www.w3.org/2000/svg" xmlns:xlink="http://www.w3.org/1999/xlink">
    <!-- Generator: Sketch 41.2 (35397) - http://www.bohemiancoding.com/sketch -->
    <title>logo</title>
    <desc>Created with Sketch.</desc>
    <defs></defs>
    <g id="hi-fi" stroke="none" stroke-width="1" fill="none" fill-rule="evenodd">
        <g id="home" transform="translate(-16.000000, -14.000000)" fill="#FFFFFF">
            <g id="header">
                <g id="Group-20" transform="translate(16.000000, 14.000000)">
                    <g id="Group">
                        <path d="M1.11347905,12.2103631 C3.34914066,21.8962653 12.3237547,29.1383666 23.0547949,29.1383666 C35.4683371,29.1383666 45.5315013,19.4472818 45.5315013,7.49272283 L43.5133382,7.49272283 C43.4362832,12.7163471 39.0152383,16.9280034 33.5727409,16.9280034 C29.9227542,16.9280034 26.7321816,15.0337459 25.0032106,12.2103631 L1.11347905,12.2103631 Z" id="Combined-Shape"></path>
                        <path d="M10.0792639,6.40713504 L3.23482722,6.40713504 C1.96174906,6.40713504 0.578088578,7.64124662 0.578088578,8.85163281 L0.578088578,26.3220181 C0.578088578,28.2433358 2.88412472,29.6933831 3.43872184,29.6933831 L7.28278312,29.6933831 L23.0308598,29.6933831 C25.0970127,29.6933831 29.1062159,27.271782 29.1062159,25.3039815 L29.1062159,11.6933709 C29.1062159,10.1884402 28.914695,8.36283133 26.2534379,8.36283133 L12.7618411,8.36283133 C12.6202645,7.2822391 11.2554439,6.40713504 10.0792639,6.40713504 Z" id="Combined-Shape" transform="translate(14.842152, 18.050259) scale(-1, 1) translate(-14.842152, -18.050259) "></path>
                        <path d="M10.0792639,9.99029711 L3.23482722,9.99029711 C1.96174906,9.99029711 0.578088578,11.0345103 0.578088578,12.0586488 L0.578088578,26.7954002 C0.578088578,28.4210759 2.88412472,29.6933831 3.43872184,29.6933831 L7.28278312,29.6933831 L23.0308598,29.6933831 C25.0970127,29.6933831 29.1062159,27.2976628 29.1062159,25.6326568 L29.1062159,14.4631156 C29.1062159,13.1897555 28.8259039,9.99029711 26.1646467,9.99029711 L10.0792639,9.99029711 Z" id="Combined-Shape-Copy"></path>
                        <path d="M16.4270482,28.5833501 L8.0968138,28.5833501 L4.25330001,28.5833501 C3.72671285,28.5833501 1.73074019,27.822658 1.73074019,26.2656728 L1.73074019,21.0906272 L16.4270482,21.0906272 L16.4270482,28.5833501 Z" id="Combined-Shape"></path>
                        <path d="M28.1637875,30.9630567 C26.6758723,32.4068989 24.613552,33.3009904 22.3343877,33.3009904 C17.7986704,33.3009904 14.121745,29.7600171 14.121745,25.3920052 C14.121745,23.1892559 15.0568218,21.1968304 16.5655613,19.7627798 L28.1637875,30.9630567 Z" id="Combined-Shape"></path>
                        <path d="M45.5289943,9.89270189 C44.2893968,11.0955818 42.5712564,11.8404586 40.6724611,11.8404586 C36.8937081,11.8404586 33.8304236,8.89043718 33.8304236,5.25140132 C33.8304236,3.41626816 34.6094458,1.75635789 35.8663922,0.561635531 L45.5289943,9.89270189 Z" id="Combined-Shape-Copy-3" transform="translate(39.679709, 6.201047) rotate(175.000000) translate(-39.679709, -6.201047) "></path>
                        <path d="M55.1646122,17.5707195 C53.9250147,18.7735994 52.2068743,19.5184763 50.308079,19.5184763 C46.5293261,19.5184763 43.4660415,16.5684548 43.4660415,12.929419 C43.4660415,11.0942858 44.2450637,9.43437552 45.5020101,8.23965317 L55.1646122,17.5707195 Z" id="Combined-Shape-Copy-4" transform="translate(49.315327, 13.879065) rotate(175.000000) translate(-49.315327, -13.879065) "></path>
                        <ellipse id="Oval-2" cx="13.8335821" cy="17.7605282" rx="1.44081451" ry="1.38754127"></ellipse>
                    </g>
                </g>
            </g>
        </g>
    </g>
</svg>