<?xml version="1.0" encoding="UTF-8" standalone="no"?>
<svg width="128px" height="128px" viewBox="0 0 128 128" version="1.1" xmlns="http://www.w3.org/2000/svg" xmlns:xlink="http://www.w3.org/1999/xlink">
    <!-- Generator: Sketch 41.2 (35397) - http://www.bohemiancoding.com/sketch -->
    <title>management</title>
    <desc>Created with Sketch.</desc>
    <defs></defs>
    <g id="hi-fi" stroke="none" stroke-width="1" fill="none" fill-rule="evenodd">
        <g id="home" transform="translate(-1346.000000, -1849.000000)">
            <g id="business" transform="translate(0.000000, 1683.000000)">
                <g id="Group-4" transform="translate(351.000000, 148.000000)">
                    <g id="Group-27" transform="translate(918.000000, 0.000000)">
                        <g id="management">
                            <g id="Group-21" transform="translate(31.000000, 18.000000)">
                                <g id="management" transform="translate(46.000000, 0.000000)">
                                    <g>
                                        <rect id="Rectangle-6" fill="#D8D8D8" opacity="0" x="0" y="0" width="128" height="128"></rect>
                                        <g id="权限管理" transform="translate(17.000000, 17.000000)" fill="#699AD4">
                                            <g id="Group">
                                                <path d="M4.80218041,16.584171 L56.6808861,16.584171 C57.5559946,18.5668964 58.9547452,20.2628518 60.7490732,21.5101067 C62.724589,22.8832443 65.0418951,23.6090389 67.4505541,23.6090389 C69.859213,23.6090389 72.1764243,22.8832443 74.1519401,21.5101067 C75.9463631,20.2628518 77.3450188,18.5668964 78.2201272,16.584171 L88.987898,16.584171 C91.6032628,16.584171 93.7310333,14.4564005 93.7310333,11.8410358 C93.7310333,9.22567097 91.6032628,7.09790051 88.987898,7.09790051 L78.2200325,7.09790051 C77.344924,5.1151751 75.9462683,3.41921969 74.1518454,2.17187 C72.1764245,0.798732369 69.8591183,0.072937789 67.4504593,0.072937789 C65.0418004,0.072937789 62.7244943,0.798732369 60.7489784,2.17187 C58.9545555,3.41912485 57.5558997,5.11508027 56.6807913,7.09790051 L4.80218041,7.09790051 C2.18681563,7.09790051 0.0590451637,9.22567097 0.0590451637,11.8410358 C0.0590451637,14.4564005 2.18672079,16.584171 4.80218041,16.584171 Z M70.443757,11.8410358 C70.443757,13.491552 69.1009755,14.8343336 67.4504592,14.8343336 C65.799943,14.8343336 64.4570666,13.491552 64.4570666,11.8410358 C64.4570666,10.1905195 65.7998482,8.84773795 67.4504592,8.84773795 C69.1009755,8.84773795 70.443757,10.1905195 70.443757,11.8410358 Z" id="Shape"></path>
                                                <path d="M88.987898,77.4794819 L78.2200325,77.4794819 C77.344924,75.4967565 75.9462683,73.8008011 74.1518454,72.5534514 C72.1764245,71.1802189 69.8591183,70.4544244 67.4504593,70.4544244 C65.0418004,70.4544244 62.7245891,71.1802189 60.7489784,72.5534514 C58.9545555,73.8007063 57.5558997,75.4966617 56.6807913,77.4794819 L4.80218041,77.4794819 C2.18681563,77.4794819 0.0590451637,79.6072524 0.0590451637,82.2226172 C0.0590451637,84.837982 2.18681563,86.9657524 4.80218041,86.9657524 L56.6808861,86.9657524 C57.5559946,88.9484778 58.9547452,90.6444332 60.7490732,91.8917829 C62.724589,93.2649206 65.0418951,93.9907151 67.4505541,93.9907151 C69.859213,93.9907151 72.1764243,93.2649206 74.1519401,91.8917829 C75.9462682,90.6445281 77.3450188,88.9485727 78.2201272,86.9657524 L88.987898,86.9657524 C91.6032628,86.9657524 93.7310333,84.837982 93.7310333,82.2226172 C93.7310333,79.6072524 91.6033576,77.4794819 88.987898,77.4794819 Z M70.443757,82.2226172 C70.443757,83.8730385 69.1009755,85.215915 67.4504592,85.215915 C65.799943,85.215915 64.4570666,83.8731334 64.4570666,82.2226172 C64.4570666,80.5721009 65.7998482,79.2292245 67.4504592,79.2292245 C69.1009755,79.2292245 70.443757,80.5721009 70.443757,82.2226172 Z" id="Shape"></path>
                                                <path d="M88.987898,42.2885489 L37.5031571,42.2885489 C36.6280486,40.3058235 35.229393,38.609868 33.43497,37.3626132 C31.4594542,35.9894756 29.1422429,35.263681 26.733584,35.263681 C24.324925,35.263681 22.0077138,35.9894756 20.0321979,37.3626132 C18.237775,38.609868 16.8391192,40.3058235 15.9640108,42.2885489 L4.80218041,42.2885489 C2.18681563,42.2885489 0.0590451637,44.4163193 0.0590451637,47.0316841 C0.0590451637,49.6471437 2.18681563,51.7748194 4.80218041,51.7748194 L15.9641057,51.7748194 C16.8392142,53.7575448 18.2378699,55.4535002 20.0322928,56.7008499 C22.0078087,58.0740824 24.3250199,58.7998769 26.7336789,58.7998769 C29.1423379,58.7998769 31.4596439,58.0740823 33.4351598,56.7008499 C35.2294879,55.453595 36.6282385,53.7576396 37.503252,51.7748194 L88.987898,51.7748194 C91.6032628,51.7748194 93.7310333,49.6470489 93.7310333,47.0316841 C93.7310333,44.4163193 91.6033576,42.2885489 88.987898,42.2885489 Z M23.7402862,47.031779 C23.7402862,45.3812628 25.0830678,44.0384812 26.7335841,44.0384812 C28.3841003,44.0384812 29.7268819,45.3812628 29.7268819,47.031779 C29.7268819,48.6822953 28.3841003,50.0251717 26.7335841,50.0251717 C25.0830678,50.0251717 23.7402862,48.6822952 23.7402862,47.031779 Z" id="Shape"></path>
                                            </g>
                                        </g>
                                    </g>
                                </g>
                            </g>
                        </g>
                    </g>
                </g>
            </g>
        </g>
    </g>
</svg>