<?xml version="1.0" encoding="UTF-8" standalone="no"?>
<svg width="128px" height="128px" viewBox="0 0 128 128" version="1.1" xmlns="http://www.w3.org/2000/svg" xmlns:xlink="http://www.w3.org/1999/xlink">
    <!-- Generator: Sketch 41.2 (35397) - http://www.bohemiancoding.com/sketch -->
    <title>sso</title>
    <desc>Created with Sketch.</desc>
    <defs></defs>
    <g id="hi-fi" stroke="none" stroke-width="1" fill="none" fill-rule="evenodd">
        <g id="home" transform="translate(-1040.000000, -1849.000000)">
            <g id="business" transform="translate(0.000000, 1683.000000)">
                <g id="Group-4" transform="translate(351.000000, 148.000000)">
                    <g id="A-Copy-4" transform="translate(612.000000, 0.000000)">
                        <g id="sso">
                            <g id="Group-23" transform="translate(28.000000, 18.000000)">
                                <g id="sso" transform="translate(49.000000, 0.000000)">
                                    <rect id="Rectangle-6" fill="#D8D8D8" opacity="0" x="0" y="0" width="128" height="128"></rect>
                                    <g id="Group-12-Copy" transform="translate(14.000000, 14.000000)">
                                        <ellipse id="Oval-80" fill="#699AD4" cx="41.0727535" cy="19.9461724" rx="20.0051001" ry="19.9461724"></ellipse>
                                        <path d="M47.7577213,85.9059269 C46.6156214,84.4171981 46.6050883,83.7237694 46.3775238,82.4773687 C46.2191821,68.4041554 46.275135,55.5530973 46.3775238,49.706068 C51.0497633,48.1384158 56.2519563,46.6097615 61.5487958,44.957702 C55.5700159,41.2923016 49.6034317,39.2088388 42.3307516,39.2088388 C18.9506776,39.2088388 0.0703466922,59.3793834 0.0703466922,85.9059269 C17.3702424,86.2069287 34.7895325,85.6802927 47.7577213,85.9059269 Z" id="Combined-Shape" fill="#699AD4"></path>
                                        <path d="M49,52.4290173 L72.5,45 L96,52.4290173 L96,83.5439714 C93.706088,87.1003253 91.1433967,90.1284694 86.0896337,93.1182355 C81.0358707,96.1080015 71.5892834,99.9249891 71.5892834,99.9249891 C71.5892834,99.9249891 63.8803705,97.6933162 57.3896452,93.1182355 C50.8989198,88.5431548 50.0976192,85.5657104 49,83.5439709 L49,52.4290173 Z" id="Rectangle-35-Copy-2" fill="#699AD4"></path>
                                        <path d="M72.4744771,90.9277824 C77.4353271,90.9277824 81.4568907,86.9180649 81.4568907,81.9718277 C81.4568907,77.0255905 77.4353271,73.015873 72.4744771,73.015873 C67.513627,73.015873 63.4920635,77.0255905 63.4920635,81.9718277 C63.4920635,86.9180649 67.513627,90.9277824 72.4744771,90.9277824 Z M72.6190476,88.0835491 C73.7148507,88.0835491 74.6031746,87.1978418 74.6031746,86.1052666 C74.6031746,85.0126914 73.7148507,84.1269841 72.6190476,84.1269841 C71.5232445,84.1269841 70.6349206,85.0126914 70.6349206,86.1052666 C70.6349206,87.1978418 71.5232445,88.0835491 72.6190476,88.0835491 Z" id="Combined-Shape" fill="#FFFFFF"></path>
                                        <rect id="Rectangle-120" fill="#FFFFFF" x="69.7866021" y="50.9714904" width="5.45827698" height="24.6464871" rx="1"></rect>
                                        <rect id="Rectangle-120-Copy" fill="#FFFFFF" transform="translate(77.917272, 59.213153) rotate(-270.000000) translate(-77.917272, -59.213153) " x="75.8469761" y="55.1054049" width="4.14059122" height="8.2154957" rx="1"></rect>
                                        <rect id="Rectangle-120-Copy-2" fill="#FFFFFF" transform="translate(77.917272, 67.149661) rotate(-270.000000) translate(-77.917272, -67.149661) " x="75.8469761" y="63.0419128" width="4.14059122" height="8.2154957" rx="1"></rect>
                                    </g>
                                </g>
                            </g>
                        </g>
                    </g>
                </g>
            </g>
        </g>
    </g>
</svg>